<?xml version="1.0" encoding="UTF-8" standalone="no"?>
<!-- Created with Inkscape (http://www.inkscape.org/) -->

<svg
   width="210mm"
   height="297mm"
   viewBox="0 0 210 297"
   version="1.1"
   id="svg1"
   inkscape:version="1.3.2 (091e20e, 2023-11-25)"
   sodipodi:docname="loghi.svg"
   xmlns:inkscape="http://www.inkscape.org/namespaces/inkscape"
   xmlns:sodipodi="http://sodipodi.sourceforge.net/DTD/sodipodi-0.dtd"
   xmlns="http://www.w3.org/2000/svg"
   xmlns:svg="http://www.w3.org/2000/svg">
  <sodipodi:namedview
     id="namedview1"
     pagecolor="#ffffff"
     bordercolor="#000000"
     borderopacity="0.25"
     inkscape:showpageshadow="2"
     inkscape:pageopacity="0.0"
     inkscape:pagecheckerboard="0"
     inkscape:deskcolor="#d1d1d1"
     inkscape:document-units="mm"
     showguides="true"
     inkscape:zoom="0.51663519"
     inkscape:cx="342.60152"
     inkscape:cy="145.17013"
     inkscape:window-width="1488"
     inkscape:window-height="815"
     inkscape:window-x="0"
     inkscape:window-y="38"
     inkscape:window-maximized="0"
     inkscape:current-layer="layer2" />
  <defs
     id="defs1" />
  <g
     inkscape:label="Livello 1"
     inkscape:groupmode="layer"
     id="layer1"
     inkscape:export-filename="text1.svg"
     inkscape:export-xdpi="100"
     inkscape:export-ydpi="100">
    <path
       style="font-size:50.8px;font-family:Varino;-inkscape-font-specification:Varino;stroke-width:1.11676;stroke-linecap:round;stroke-linejoin:round;stroke-miterlimit:10"
       d="m 191.07014,123.14696 c -1.87674,0 -3.43176,1.55502 -3.43176,3.43176 v 18.55298 c 0,2.25209 -0.64346,9.49097 -9.00838,9.49097 h -1.93037 c -8.41854,0 -9.062,-7.23888 -9.062,-9.49097 v -18.55298 c 0,-1.87674 -1.55502,-3.43176 -3.43176,-3.43176 -1.87675,0 -3.37815,1.55502 -3.37815,3.43176 v 18.55298 c 0,2.25209 -0.64345,9.49097 -9.062,9.49097 h -1.93037 c -8.41854,0 -9.062,-7.23888 -9.062,-9.49097 v -18.55298 c 0,-1.87674 -1.50139,-3.43176 -3.37814,-3.43176 -1.93037,0 -3.43176,1.55502 -3.43176,3.43176 v 18.55298 c 0,2.19847 0.32172,4.23608 0.96518,6.16645 0.69708,1.98399 1.71588,3.75349 3.11004,5.25489 2.84193,3.21728 6.91715,4.87954 11.79668,4.87954 h 1.93037 c 4.82592,0 8.95476,-1.66226 11.79669,-4.87954 0.21449,-0.26811 0.42897,-0.4826 0.64346,-0.7507 0.21448,0.2681 0.42897,0.48259 0.64345,0.7507 2.89555,3.21728 6.97077,4.87954 11.85031,4.87954 H 178.63 c 4.82592,0 8.90114,-1.66226 11.79669,-4.87954 1.34053,-1.5014 2.35934,-3.2709 3.05641,-5.25489 0.64346,-1.93037 1.01881,-3.96798 1.01881,-6.16645 v -18.55298 c 0,-1.87674 -1.55502,-3.43176 -3.43177,-3.43176 z"
       id="text1"
       aria-label="w"
       inkscape:export-filename="../../../Downloads/rect2-8.svg"
       inkscape:export-xdpi="100"
       inkscape:export-ydpi="100" />
    <rect
       style="fill:none;fill-opacity:1;stroke:#000000;stroke-width:0.956292;stroke-linecap:round;stroke-linejoin:round;stroke-miterlimit:10;stroke-dasharray:none;stroke-opacity:1"
       id="rect2"
       width="67.73333"
       height="67.73333"
       x="130.83679"
       y="107.63737" />
    <rect
       style="fill:none;fill-opacity:1;stroke:#000000;stroke-width:0.956292;stroke-linecap:round;stroke-linejoin:round;stroke-miterlimit:10;stroke-dasharray:none;stroke-opacity:1"
       id="rect2-8"
       width="67.73333"
       height="67.73333"
       x="0.47814599"
       y="0.47814599"
       inkscape:export-filename="logo.svg"
       inkscape:export-xdpi="100"
       inkscape:export-ydpi="100" />
  </g>
  <g
     inkscape:groupmode="layer"
     id="layer2"
     inkscape:label="Livello 2">
    <text
       xml:space="preserve"
       style="font-size:50.8px;font-family:Yaro;-inkscape-font-specification:Yaro;fill:#000000;fill-opacity:1;stroke:none;stroke-width:1.058;stroke-linecap:round;stroke-linejoin:round;stroke-miterlimit:10;stroke-dasharray:none;stroke-opacity:1"
       x="5.7814565"
       y="208.62144"
       id="text1-7"
       inkscape:export-filename="text1.svg"
       inkscape:export-xdpi="179.27"
       inkscape:export-ydpi="179.27"><tspan
         sodipodi:role="line"
         id="tspan1-2"
         style="font-style:normal;font-variant:normal;font-weight:normal;font-stretch:normal;font-size:50.8px;font-family:Varino;-inkscape-font-specification:Varino;fill:#000000;fill-opacity:1;stroke:none;stroke-width:1.058"
         x="5.7814565"
         y="208.62144">w</tspan></text>
    <path
       style="font-size:72.6238px;font-family:Varino;-inkscape-font-specification:Varino;stroke-width:1.51252;stroke-linecap:round;stroke-linejoin:round;stroke-miterlimit:10"
       d="M 59.066524,8.9218294 C 56.815186,7.7598486 54.055481,8.703958 52.893501,10.955296 l -6.536143,12.854413 c -2.323961,4.575299 -6.899261,7.407628 -11.982927,7.407628 -5.083666,0 -9.731589,-2.832329 -12.055551,-7.407628 L 15.855361,10.955296 C 14.693381,8.703958 11.861052,7.7598486 9.6097145,8.9218294 7.3583766,10.08381 6.4142672,12.843515 7.576248,15.167476 l 6.536142,12.854413 c 1.888219,3.703814 4.793171,6.826638 8.351737,9.077976 2.251338,1.379852 4.720548,2.323961 7.262381,2.832328 v 15.686741 c 0,2.614457 2.10609,4.647924 4.647923,4.647924 2.541833,0 4.5753,-2.033467 4.5753,-4.647924 V 39.932193 c 2.614456,-0.508367 5.011042,-1.452476 7.26238,-2.832328 3.63119,-2.251338 6.463518,-5.374162 8.424361,-9.077976 L 61.09999,15.167476 c 1.161981,-2.323961 0.290495,-5.083666 -2.033466,-6.2456466 z"
       id="text1-7-3"
       aria-label="Y" />
    <path
       style="font-size:74.8131px;font-family:Varino;-inkscape-font-specification:Varino;stroke-width:1.55812;stroke-linecap:round;stroke-linejoin:round;stroke-miterlimit:10"
       d="m 173.17329,-90.210385 6.50874,-11.895285 c 1.197,-2.31921 0.37406,-5.1621 -1.94515,-6.43393 -2.3192,-1.27182 -5.23691,-0.37406 -6.43392,1.94514 l -6.43393,11.820476 c -2.54364,4.713225 -7.4065,7.630936 -12.71823,7.630936 -5.31173,0 -10.17458,-2.917711 -12.71822,-7.630936 l -6.43393,-11.820476 c -1.27182,-2.3192 -4.18953,-3.21696 -6.43393,-1.94514 -2.3192,1.27183 -3.21696,4.11472 -1.94514,6.43393 l 6.43393,11.895285 c 1.7207,3.14215 4.03991,5.760609 6.73318,7.780563 -2.69327,2.019953 -5.01248,4.713225 -6.73318,7.780562 l -6.43393,11.895284 c -1.27182,2.319206 -0.37406,5.236917 1.94514,6.433926 0.67332,0.448879 1.49626,0.598505 2.2444,0.598505 1.64588,0 3.29177,-0.897757 4.18953,-2.468832 l 6.43393,-11.895283 c 2.54364,-4.638413 7.40649,-7.556124 12.71822,-7.556124 5.31173,0 10.17459,2.917711 12.71823,7.556124 l 6.43393,11.895283 c 0.82294,1.571075 2.46883,2.468832 4.18953,2.468832 0.74813,0 1.49626,-0.149626 2.24439,-0.598505 2.31921,-1.197009 3.14215,-4.11472 1.94515,-6.433926 l -6.50874,-11.895284 c -1.64589,-3.067337 -3.9651,-5.760609 -6.73318,-7.780562 2.76808,-2.019954 5.08729,-4.638413 6.73318,-7.780563 z"
       id="text1-7-80"
       aria-label="x" />
    <path
       style="font-size:67.0851px;font-family:Varino;-inkscape-font-specification:Varino;stroke-width:1.39716;stroke-linecap:round;stroke-linejoin:round;stroke-miterlimit:10"
       d="M 43.398883,-51.822026 H 21.193715 c -3.085914,0 -5.568063,-2.549234 -5.568063,-5.568064 0,-3.085914 2.482149,-5.635148 5.568063,-5.635148 h 29.182018 c 2.347978,0 4.226361,-1.878383 4.226361,-4.226361 0,-2.347979 -1.878383,-4.293446 -4.226361,-4.293446 H 21.193715 c -7.781871,0 -14.08787,6.373084 -14.08787,14.154955 0,7.714787 6.305999,14.087871 14.08787,14.087871 h 22.205168 c 3.018829,0 5.568063,2.482149 5.568063,5.568063 0,3.085915 -2.549234,5.568063 -5.568063,5.568063 H 14.216865 c -2.347978,0 -4.2934459,1.878383 -4.2934459,4.226361 0,2.415064 1.9454679,4.293447 4.2934459,4.293447 h 29.182018 c 7.714786,0 14.08787,-6.305999 14.08787,-14.087871 0,-7.781871 -6.373084,-14.08787 -14.08787,-14.08787 z"
       id="text1-7-0"
       aria-label="s" />
    <path
       style="font-size:60.7137px;font-family:Varino;-inkscape-font-specification:Varino;stroke-width:1.26447;stroke-linecap:round;stroke-linejoin:round;stroke-miterlimit:10"
       d="M -7.1132584,-75.928118 H -44.998607 c -2.124979,0 -3.885676,1.760697 -3.885676,3.885677 0,2.124979 1.760697,3.824963 3.885676,3.824963 h 37.8853486 c 2.124979,0 3.824963,-1.699984 3.824963,-3.824963 0,-2.12498 -1.699984,-3.885677 -3.824963,-3.885677 z m 0,17.849827 H -44.998607 c -2.124979,0 -3.885676,1.699984 -3.885676,3.824963 v 17.789114 c 0,2.185694 1.760697,3.885677 3.885676,3.885677 2.12498,0 3.824964,-1.699983 3.824964,-3.885677 v -13.903437 h 34.0603846 c 2.124979,0 3.824963,-1.760697 3.824963,-3.885677 0,-2.124979 -1.699984,-3.824963 -3.824963,-3.824963 z"
       id="text1-7-9"
       aria-label="F" />
    <path
       style="font-size:60.6965px;font-family:Varino;-inkscape-font-specification:Varino;stroke-width:1.26411;stroke-linecap:round;stroke-linejoin:round;stroke-miterlimit:10"
       d="m 116.39263,16.491519 h 20.02984 c 2.12438,0 3.88458,-1.699502 3.88458,-3.823879 0,-2.124378 -1.7602,-3.8845758 -3.88458,-3.8845758 h -20.02984 c -2.91343,0 -5.76617,0.606965 -8.43681,1.6995018 -2.60995,1.092537 -4.91642,2.670646 -6.85871,4.67363 -2.002982,2.002985 -3.581091,4.309452 -4.673628,6.858705 -1.153233,2.670646 -1.699501,5.523381 -1.699501,8.436813 0,2.913432 0.546268,5.766167 1.699501,8.436813 1.092537,2.60995 2.670646,4.916417 4.673628,6.919401 1.94229,1.942288 4.24876,3.520397 6.85871,4.612934 2.67064,1.153234 5.52338,1.699502 8.43681,1.699502 h 20.02984 c 2.12438,0 3.88458,-1.699502 3.88458,-3.884576 0,-2.124377 -1.7602,-3.823879 -3.88458,-3.823879 h -20.02984 c -7.70846,0 -13.96019,-6.25174 -13.96019,-13.960195 0,-7.647759 6.25173,-13.960195 13.96019,-13.960195 z"
       id="text1-7-8"
       aria-label="c" />
    <path
       style="font-size:62.4417px;font-family:Varino;-inkscape-font-specification:Varino;stroke-width:1.30463;stroke-linecap:round;stroke-linejoin:round;stroke-miterlimit:10"
       d="M 98.404756,-78.031762 H 69.933877 c -2.084688,0 -3.752438,1.898342 -3.752438,4.189445 0,2.291102 1.66775,4.123984 3.752438,4.123984 h 28.470879 c 2.680314,0 4.884124,2.487483 4.884124,5.433186 0,3.011163 -2.20381,5.433185 -4.884124,5.433185 H 69.933877 c -2.084688,0 -3.752438,1.832883 -3.752438,4.189445 0,2.291103 1.66775,4.123984 3.752438,4.123984 h 28.470879 c 2.680314,0 4.884124,2.422023 4.884124,5.433186 v 0.06546 c 0,3.011163 -2.20381,5.433186 -4.884124,5.433186 H 69.933877 c -2.084688,0 -3.752438,1.832882 -3.752438,4.123984 0,2.356562 1.66775,4.189445 3.752438,4.189445 h 28.470879 c 6.849684,0 12.508124,-6.153247 12.508124,-13.746615 v -0.06546 c 0,-3.731224 -1.36993,-7.135147 -3.57375,-9.55717 2.20382,-2.487483 3.57375,-5.891406 3.57375,-9.62263 0,-7.527908 -5.65844,-13.746615 -12.508124,-13.746615 z"
       id="text1-7-7"
       aria-label="B" />
    <path
       style="font-size:60.9996px;font-family:Varino;-inkscape-font-specification:Varino;stroke-width:1.27042;stroke-linecap:round;stroke-linejoin:round;stroke-miterlimit:10"
       d="m 189.50872,-57.184208 c -2.26763,-4.978497 -7.35447,-8.257018 -12.87031,-8.257018 -5.57714,0 -10.60269,3.278521 -12.9316,8.257018 l -13.60575,29.628121 c -0.91931,1.942828 -0.0613,4.249936 1.8999,5.099922 1.96119,0.910701 4.2901,0.06071 5.14812,-1.882113 l 13.66704,-29.688836 c 1.04189,-2.246394 3.30951,-3.642802 5.82229,-3.642802 2.45149,0 4.7804,1.396408 5.82228,3.642802 l 13.60575,29.688836 c 0.67416,1.396407 2.08377,2.246394 3.55466,2.246394 0.55159,0 1.10317,-0.121426 1.59347,-0.364281 1.96119,-0.849986 2.81921,-3.157094 1.96119,-5.099922 z m -12.87031,14.206927 c -3.8611,0 -6.98674,3.096381 -6.98674,6.921323 0,3.824942 3.12564,6.921324 6.98674,6.921324 3.86109,0 6.98674,-3.096382 6.98674,-6.921324 0,-3.824942 -3.12565,-6.921323 -6.98674,-6.921323 z"
       id="text1-7-4"
       aria-label="A" />
    <path
       style="font-size:50.8px;font-family:Varino;-inkscape-font-specification:Varino;stroke-width:1.058;stroke-linecap:round;stroke-linejoin:round;stroke-miterlimit:10"
       d="m 174.51144,36.304144 v 16.8148 c 0,2.3368 1.9304,4.2164 4.2164,4.2164 2.3368,0 4.2672,-1.8796 4.2672,-4.2164 v -22.098 c 0,-1.778 1.4224,-3.2004 3.2004,-3.2004 1.778,0 3.2512,1.4224 3.2512,3.2004 v 22.098 c 0,5.8928 -4.826,10.668 -10.7188,10.668 -5.842,0 -10.668,-4.7752 -10.668,-10.668 v -16.8148 c 0,-2.286 -1.8796,-4.2164 -4.2164,-4.2164 -2.3368,0 -4.2164,1.9304 -4.2164,4.2164 v 22.098 c 0,1.778 -1.4224,3.2512 -3.2004,3.2512 -1.8288,0 -3.2512,-1.4732 -3.2512,-3.2512 v -22.098 c 0,-5.842 4.7752,-10.668 10.668,-10.668 5.8928,0 10.668,4.826 10.668,10.668 z"
       id="text1-7-5"
       aria-label="s" />
    <path
       style="font-size:50.8px;font-family:Varino;-inkscape-font-specification:Varino;fill:#000000;fill-opacity:1;stroke:none;stroke-width:0.304837;stroke-linecap:round;stroke-linejoin:round;stroke-miterlimit:10;stroke-dasharray:none;stroke-opacity:1"
       d="m 181.1413,282.75514 c 0,6.78934 -5.56023,12.29104 -12.34956,12.29104 -6.73081,0 -12.29105,-5.5017 -12.29105,-12.29104 v -19.37302 c 0,-2.63379 -2.16557,-4.85789 -4.85789,-4.85789 -2.69232,0 -4.85789,2.2241 -4.85789,4.85789 v 25.46001 c 0,2.04851 -1.6388,3.74584 -3.68731,3.74584 -2.10703,0 -3.74584,-1.69733 -3.74584,-3.74584 v -25.46001 c 0,-6.73081 5.50171,-12.29104 12.29104,-12.29104 6.78934,0 12.29105,5.56023 12.29105,12.29104 v 19.37302 c 0,2.69233 2.22409,4.85789 4.85789,4.85789 2.69232,0 4.91641,-2.16556 4.91641,-4.85789 l 0.0252,-9.60063 V 263.468 c 0,-6.73081 5.50171,-12.29104 12.29104,-12.29104 6.78934,0 12.29104,5.56023 12.29104,12.29104 v 25.46002 c 0,2.04851 -1.6388,3.74584 -3.74584,3.74584 -2.04851,0 -3.68731,-1.69733 -3.68731,-3.74584 V 263.468 c 0,-2.63379 -2.16556,-4.85788 -4.85789,-4.85788 -2.69232,0 -4.85788,2.22409 -4.85788,4.85788 v 9.68651 z"
       id="text1-7-5-0"
       aria-label="s"
       sodipodi:nodetypes="csssssssssssssccssssssssscc" />
    <path
       style="font-size:50.8px;font-family:Varino;-inkscape-font-specification:Varino;stroke-width:1.058;stroke-linecap:round;stroke-linejoin:round;stroke-miterlimit:10"
       d="m 35.170835,95.620216 v 16.814804 l -6.4516,0 V 95.620216 c 0,-2.286 -1.8796,-4.2164 -4.2164,-4.2164 -2.3368,0 -4.2164,1.9304 -4.2164,4.2164 v 22.098004 c 0,1.778 -1.4224,3.2512 -3.2004,3.2512 -1.8288,0 -3.2512,-1.4732 -3.2512,-3.2512 V 95.620216 c 0,-5.842 4.7752,-10.668 10.668,-10.668 5.8928,0 10.668,4.826 10.668,10.668 z"
       id="text1-7-5-5"
       aria-label="s"
       sodipodi:nodetypes="sccsssssssss" />
    <path
       style="font-size:50.8px;font-family:Varino;-inkscape-font-specification:Varino;fill:none;stroke:#000000;stroke-width:1.05807;stroke-linecap:round;stroke-linejoin:round;stroke-miterlimit:10;stroke-dasharray:none;stroke-opacity:1"
       d="m 90.658893,168.5614 h 6.4516 v -16.81481 c 0,-2.286 1.8796,-4.2164 4.216397,-4.2164 2.3368,0 4.2164,1.9304 4.2164,4.2164 v 22.09801 c 0,1.778 1.4224,3.2512 3.2004,3.2512 1.8288,0 3.2512,-1.4732 3.2512,-3.2512 v -22.09801 c 0,-5.842 -4.7752,-10.668 -10.668,-10.668 -5.892797,0 -10.667997,4.826 -10.667997,10.668 v 16.81481"
       id="text1-7-5-5-9"
       aria-label="s"
       sodipodi:nodetypes="ccsssssssssc" />
    <path
       style="font-size:50.8px;font-family:Varino;-inkscape-font-specification:Varino;stroke-width:1.058;stroke-linecap:round;stroke-linejoin:round;stroke-miterlimit:10"
       d="m 116.22901,88.715884 v 16.814806 c 0,2.3368 1.9304,4.2164 4.2164,4.2164 2.3368,0 4.2672,-1.8796 4.2672,-4.2164 V 83.432684 c 0,-1.778 1.4224,-3.2004 3.2004,-3.2004 1.77799,0 3.25119,1.4224 3.25119,3.2004 v 22.098006 c 0,5.8928 -4.82599,10.668 -10.71879,10.668 -5.842,0 -10.668,-4.7752 -10.668,-10.668 V 88.715884 c 0,-2.286 -1.8796,-4.2164 -4.2164,-4.2164 -2.3368,0 -4.2164,1.9304 -4.2164,4.2164 v 22.098006 c 0,1.778 -1.422402,3.2512 -3.200402,3.2512 -1.8288,0 -3.2512,-1.4732 -3.2512,-3.2512 V 88.715884 c 0,-5.842 4.7752,-10.668 10.668002,-10.668 5.8928,0 10.668,4.826 10.668,10.668 z"
       id="text1-7-5-1"
       aria-label="s" />
    <path
       style="font-size:50.8px;font-family:Varino;-inkscape-font-specification:Varino;fill:none;fill-opacity:1;stroke:#000000;stroke-width:0.234684;stroke-linecap:round;stroke-linejoin:round;stroke-miterlimit:10;stroke-dasharray:none;stroke-opacity:1"
       d="m 135.74771,194.10318 c 5.22687,0 9.46244,4.28063 9.46244,9.46245 v 19.60081 c 0,1.57707 -1.26165,2.8838 -2.8838,2.8838 -1.57706,0 -2.83873,-1.30673 -2.83873,-2.8838 v -19.60081 c 0,-2.02767 -1.66719,-3.73992 -3.73991,-3.73992 -2.07273,0 -3.73992,1.71225 -3.73992,3.73992 l 0.005,9.75407 v 9.80039 c 0,1.57708 -1.26166,2.8838 -2.88379,2.8838 -1.57708,0 -2.83874,-1.30672 -2.83874,-2.8838 v -19.6008 c 0,-2.02767 -1.6672,-3.73992 -3.73992,-3.73992 -2.07273,0 -3.73992,1.71225 -3.73992,3.73992 v 7.45732 l -0.0195,7.39119 c 0,5.22688 -4.28063,9.46245 -9.50751,9.46245 -5.18182,0 -9.462458,-4.23557 -9.462458,-9.46245 v -14.91462 c 0,-2.02767 -1.66718,-3.73992 -3.73992,-3.73992 -2.07272,0 -3.73992,1.71225 -3.73992,3.73992 v 19.60079 c 0,1.57708 -1.26166,2.88379 -2.83873,2.88379 -1.62214,0 -2.88379,-1.30671 -2.88379,-2.88379 v -19.60079 c 0,-5.18182 4.23557,-9.46246 9.46244,-9.46246 5.226888,0 9.462458,4.28064 9.462458,9.46246 v 14.91462 c 0,2.07273 1.71225,3.73993 3.73992,3.73993 2.07272,0 3.78499,-1.6672 3.78499,-3.73993 l 0.0195,-7.39119 v -7.45732 c 0,-5.18182 4.23558,-9.46246 9.46245,-9.46246 2.61344,0 4.97905,1.07016 6.59904,2.81122 1.62,-1.69471 3.98561,-2.76487 6.59906,-2.76487 z"
       id="text1-7-5-5-9-3"
       aria-label="s"
       sodipodi:nodetypes="sssssssccssssssccsssssssssssssccsscs" />
  </g>
</svg>
