<?xml version="1.0" encoding="UTF-8" standalone="no"?>
<!-- Created with Inkscape (http://www.inkscape.org/) -->

<svg
   width="68.689621mm"
   height="68.689621mm"
   viewBox="0 0 68.689621 68.689621"
   version="1.1"
   id="svg1"
   xmlns="http://www.w3.org/2000/svg"
   xmlns:svg="http://www.w3.org/2000/svg">
  <defs
     id="defs1" />
  <g
     id="layer1">
    <rect
       style="fill:none;fill-opacity:1;stroke:#000000;stroke-width:0.956292;stroke-linecap:round;stroke-linejoin:round;stroke-miterlimit:10;stroke-dasharray:none;stroke-opacity:1"
       id="rect2-8"
       width="67.73333"
       height="67.73333"
       x="0.47814599"
       y="0.47814599" />
  </g>
  <g
     id="layer2">
    <path
       style="font-size:72.6238px;font-family:Varino;-inkscape-font-specification:Varino;stroke-width:1.51252;stroke-linecap:round;stroke-linejoin:round;stroke-miterlimit:10"
       d="M 59.066524,8.9218294 C 56.815186,7.7598486 54.055481,8.703958 52.893501,10.955296 l -6.536143,12.854413 c -2.323961,4.575299 -6.899261,7.407628 -11.982927,7.407628 -5.083666,0 -9.731589,-2.832329 -12.055551,-7.407628 L 15.855361,10.955296 C 14.693381,8.703958 11.861052,7.7598486 9.6097145,8.9218294 7.3583766,10.08381 6.4142672,12.843515 7.576248,15.167476 l 6.536142,12.854413 c 1.888219,3.703814 4.793171,6.826638 8.351737,9.077976 2.251338,1.379852 4.720548,2.323961 7.262381,2.832328 v 15.686741 c 0,2.614457 2.10609,4.647924 4.647923,4.647924 2.541833,0 4.5753,-2.033467 4.5753,-4.647924 V 39.932193 c 2.614456,-0.508367 5.011042,-1.452476 7.26238,-2.832328 3.63119,-2.251338 6.463518,-5.374162 8.424361,-9.077976 L 61.09999,15.167476 c 1.161981,-2.323961 0.290495,-5.083666 -2.033466,-6.2456466 z"
       id="text1-7-3"
       aria-label="Y" />
  </g>
</svg>
