<svg xmlns="http://www.w3.org/2000/svg" xmlns:svg="http://www.w3.org/2000/svg" width="128" height="128" viewBox="0 0 68.689621 68.689621" version="1.1">
  <defs>
    <linearGradient id="Gradient" x1="0" x2="1" y1="1" y2="1">
      <stop offset="0%" stop-color="#387c98" />
      <stop offset="100%" stop-color="#49A09A" />
    </linearGradient>
  </defs>
  <path fill="url(#Gradient)" d="M 59.066524,8.9218294 C 56.815186,7.7598486 54.055481,8.703958 52.893501,10.955296 l -6.536143,12.854413 c -2.323961,4.575299 -6.899261,7.407628 -11.982927,7.407628 -5.083666,0 -9.731589,-2.832329 -12.055551,-7.407628 L 15.855361,10.955296 C 14.693381,8.703958 11.861052,7.7598486 9.6097145,8.9218294 7.3583766,10.08381 6.4142672,12.843515 7.576248,15.167476 l 6.536142,12.854413 c 1.888219,3.703814 4.793171,6.826638 8.351737,9.077976 2.251338,1.379852 4.720548,2.323961 7.262381,2.832328 v 15.686741 c 0,2.614457 2.10609,4.647924 4.647923,4.647924 2.541833,0 4.5753,-2.033467 4.5753,-4.647924 V 39.932193 c 2.614456,-0.508367 5.011042,-1.452476 7.26238,-2.832328 3.63119,-2.251338 6.463518,-5.374162 8.424361,-9.077976 L 61.09999,15.167476 c 1.161981,-2.323961 0.290495,-5.083666 -2.033466,-6.2456466 z" />
</svg>
